<mxfile host="app.diagrams.net" modified="2023-02-21T08:39:04.652Z" agent="5.0 (Windows NT 10.0; Win64; x64) AppleWebKit/537.36 (KHTML, like Gecko) Chrome/110.0.0.0 Safari/537.36" etag="N92sUMTL-0EThClOMb3-" version="20.8.21" type="github">
  <diagram id="R2lEEEUBdFMjLlhIrx00" name="Page-1">
    <mxGraphModel dx="1434" dy="802" grid="1" gridSize="10" guides="1" tooltips="1" connect="1" arrows="1" fold="1" page="1" pageScale="1" pageWidth="850" pageHeight="1100" math="0" shadow="0" extFonts="Permanent Marker^https://fonts.googleapis.com/css?family=Permanent+Marker">
      <root>
        <mxCell id="0" />
        <mxCell id="1" parent="0" />
        <mxCell id="1MsJpZM1g2GUgDrIEI7U-2" value="Usuario" style="swimlane;childLayout=stackLayout;horizontal=1;startSize=30;horizontalStack=0;rounded=1;fontSize=14;fontStyle=0;strokeWidth=2;resizeParent=0;resizeLast=1;shadow=0;dashed=0;align=center;" vertex="1" parent="1">
          <mxGeometry x="120" y="160" width="160" height="120" as="geometry" />
        </mxCell>
        <mxCell id="1MsJpZM1g2GUgDrIEI7U-3" value="+id_usuario&#xa;+nombre_completo&#xa;+nombre_user&#xa;+contraseÃ±a&#xa;+fecha_alta&#xa;" style="align=left;strokeColor=none;fillColor=none;spacingLeft=4;fontSize=12;verticalAlign=top;resizable=0;rotatable=0;part=1;" vertex="1" parent="1MsJpZM1g2GUgDrIEI7U-2">
          <mxGeometry y="30" width="160" height="90" as="geometry" />
        </mxCell>
        <mxCell id="1MsJpZM1g2GUgDrIEI7U-8" value="Bloc" style="swimlane;childLayout=stackLayout;horizontal=1;startSize=30;horizontalStack=0;rounded=1;fontSize=14;fontStyle=0;strokeWidth=2;resizeParent=0;resizeLast=1;shadow=0;dashed=0;align=center;" vertex="1" parent="1">
          <mxGeometry x="600" y="160" width="160" height="120" as="geometry" />
        </mxCell>
        <mxCell id="1MsJpZM1g2GUgDrIEI7U-9" value="+id_bloc&#xa;+nombre&#xa;+fecha_creacion" style="align=left;strokeColor=none;fillColor=none;spacingLeft=4;fontSize=12;verticalAlign=top;resizable=0;rotatable=0;part=1;" vertex="1" parent="1MsJpZM1g2GUgDrIEI7U-8">
          <mxGeometry y="30" width="160" height="90" as="geometry" />
        </mxCell>
        <mxCell id="1MsJpZM1g2GUgDrIEI7U-10" value="Nota" style="swimlane;childLayout=stackLayout;horizontal=1;startSize=30;horizontalStack=0;rounded=1;fontSize=14;fontStyle=0;strokeWidth=2;resizeParent=0;resizeLast=1;shadow=0;dashed=0;align=center;" vertex="1" parent="1">
          <mxGeometry x="120" y="520" width="160" height="120" as="geometry" />
        </mxCell>
        <mxCell id="1MsJpZM1g2GUgDrIEI7U-11" value="+id_nota&#xa;+titulo&#xa;+texto&#xa;+fecha_creacion&#xa;+fecha_modificacion" style="align=left;strokeColor=none;fillColor=none;spacingLeft=4;fontSize=12;verticalAlign=top;resizable=0;rotatable=0;part=1;" vertex="1" parent="1MsJpZM1g2GUgDrIEI7U-10">
          <mxGeometry y="30" width="160" height="90" as="geometry" />
        </mxCell>
        <mxCell id="1MsJpZM1g2GUgDrIEI7U-12" value="Adjunto" style="swimlane;childLayout=stackLayout;horizontal=1;startSize=30;horizontalStack=0;rounded=1;fontSize=14;fontStyle=0;strokeWidth=2;resizeParent=0;resizeLast=1;shadow=0;dashed=0;align=center;" vertex="1" parent="1">
          <mxGeometry x="600" y="520" width="160" height="120" as="geometry" />
        </mxCell>
        <mxCell id="1MsJpZM1g2GUgDrIEI7U-13" value="+id_adjunto&#xa;+contenido&#xa;+fecha_modificacion" style="align=left;strokeColor=none;fillColor=none;spacingLeft=4;fontSize=12;verticalAlign=top;resizable=0;rotatable=0;part=1;" vertex="1" parent="1MsJpZM1g2GUgDrIEI7U-12">
          <mxGeometry y="30" width="160" height="90" as="geometry" />
        </mxCell>
        <mxCell id="1MsJpZM1g2GUgDrIEI7U-14" value="Creacion" style="shape=rhombus;double=1;perimeter=rhombusPerimeter;whiteSpace=wrap;html=1;align=center;" vertex="1" parent="1">
          <mxGeometry x="380" y="200" width="120" height="60" as="geometry" />
        </mxCell>
        <mxCell id="1MsJpZM1g2GUgDrIEI7U-16" value="" style="endArrow=none;html=1;rounded=0;exitX=1;exitY=0.5;exitDx=0;exitDy=0;" edge="1" parent="1" source="1MsJpZM1g2GUgDrIEI7U-3" target="1MsJpZM1g2GUgDrIEI7U-14">
          <mxGeometry width="50" height="50" relative="1" as="geometry">
            <mxPoint x="330" y="270" as="sourcePoint" />
            <mxPoint x="380" y="220" as="targetPoint" />
          </mxGeometry>
        </mxCell>
        <mxCell id="1MsJpZM1g2GUgDrIEI7U-17" value="" style="endArrow=none;html=1;rounded=0;" edge="1" parent="1" target="1MsJpZM1g2GUgDrIEI7U-9">
          <mxGeometry width="50" height="50" relative="1" as="geometry">
            <mxPoint x="500" y="230" as="sourcePoint" />
            <mxPoint x="550" y="180" as="targetPoint" />
          </mxGeometry>
        </mxCell>
        <mxCell id="1MsJpZM1g2GUgDrIEI7U-18" value="1, N" style="rounded=0;whiteSpace=wrap;html=1;" vertex="1" parent="1">
          <mxGeometry x="410" y="120" width="62.5" height="30" as="geometry" />
        </mxCell>
        <mxCell id="1MsJpZM1g2GUgDrIEI7U-23" value="1,1" style="text;html=1;strokeColor=none;fillColor=none;align=center;verticalAlign=middle;whiteSpace=wrap;rounded=0;" vertex="1" parent="1">
          <mxGeometry x="280" y="240" width="60" height="30" as="geometry" />
        </mxCell>
        <mxCell id="1MsJpZM1g2GUgDrIEI7U-24" value="1, N" style="text;html=1;strokeColor=none;fillColor=none;align=center;verticalAlign=middle;whiteSpace=wrap;rounded=0;" vertex="1" parent="1">
          <mxGeometry x="530" y="240" width="60" height="30" as="geometry" />
        </mxCell>
      </root>
    </mxGraphModel>
  </diagram>
</mxfile>
